// public/world-pattern.svg
<svg width="1440" height="900" viewBox="0 0 1440 900" fill="none" xmlns="http://www.w3.org/2000/svg">
  <path d="M720 450c198.825 0 360-161.175 360-360S918.825-270 720-270 360-108.825 360 90s161.175 360 360 360zm0-100c143.279 0 260-116.721 260-260S863.279-170 720-170 460-53.279 460 90s116.721 260 260 260z" fill="#000"/>
  <path d="M720 450c198.825 0 360-161.175 360-360S918.825-270 720-270 360-108.825 360 90s161.175 360 360 360zm0-100c143.279 0 260-116.721 260-260S863.279-170 720-170 460-53.279 460 90s116.721 260 260 260z" fill="#000" transform="translate(360 450)"/>
  <path d="M720 450c198.825 0 360-161.175 360-360S918.825-270 720-270 360-108.825 360 90s161.175 360 360 360zm0-100c143.279 0 260-116.721 260-260S863.279-170 720-170 460-53.279 460 90s116.721 260 260 260z" fill="#000" transform="translate(-360 450)"/>
</svg>